%TF.GenerationSoftware,KiCad,Pcbnew,(7.0.0)*%
%TF.CreationDate,2025-04-15T21:28:58+02:00*%
%TF.ProjectId,PowerSchematic,506f7765-7253-4636-9865-6d617469632e,rev?*%
%TF.SameCoordinates,Original*%
%TF.FileFunction,Soldermask,Bot*%
%TF.FilePolarity,Negative*%
%FSLAX46Y46*%
G04 Gerber Fmt 4.6, Leading zero omitted, Abs format (unit mm)*
G04 Created by KiCad (PCBNEW (7.0.0)) date 2025-04-15 21:28:58*
%MOMM*%
%LPD*%
G01*
G04 APERTURE LIST*
G04 Aperture macros list*
%AMRoundRect*
0 Rectangle with rounded corners*
0 $1 Rounding radius*
0 $2 $3 $4 $5 $6 $7 $8 $9 X,Y pos of 4 corners*
0 Add a 4 corners polygon primitive as box body*
4,1,4,$2,$3,$4,$5,$6,$7,$8,$9,$2,$3,0*
0 Add four circle primitives for the rounded corners*
1,1,$1+$1,$2,$3*
1,1,$1+$1,$4,$5*
1,1,$1+$1,$6,$7*
1,1,$1+$1,$8,$9*
0 Add four rect primitives between the rounded corners*
20,1,$1+$1,$2,$3,$4,$5,0*
20,1,$1+$1,$4,$5,$6,$7,0*
20,1,$1+$1,$6,$7,$8,$9,0*
20,1,$1+$1,$8,$9,$2,$3,0*%
G04 Aperture macros list end*
%ADD10R,1.700000X1.700000*%
%ADD11O,1.700000X1.700000*%
%ADD12O,1.200000X1.750000*%
%ADD13RoundRect,0.250000X-0.350000X-0.625000X0.350000X-0.625000X0.350000X0.625000X-0.350000X0.625000X0*%
%ADD14O,0.800000X1.400000*%
%ADD15O,0.950000X0.650000*%
%ADD16C,0.650000*%
G04 APERTURE END LIST*
D10*
%TO.C,J7*%
X98999999Y-108999999D03*
D11*
X101539999Y-108999999D03*
%TD*%
D10*
%TO.C,J3*%
X151999999Y-73999999D03*
D11*
X154539999Y-73999999D03*
%TD*%
D10*
%TO.C,J5*%
X198999999Y-89839999D03*
D11*
X198999999Y-92379999D03*
X198999999Y-94919999D03*
X198999999Y-97459999D03*
X198999999Y-99999999D03*
X198999999Y-102539999D03*
%TD*%
D12*
%TO.C,J2*%
X88284999Y-76719999D03*
D13*
X86285000Y-76720000D03*
%TD*%
D10*
%TO.C,J4*%
X131899999Y-65649999D03*
D11*
X131899999Y-63109999D03*
X134439999Y-65649999D03*
X134439999Y-63109999D03*
X136979999Y-65649999D03*
X136979999Y-63109999D03*
X139519999Y-65649999D03*
X139519999Y-63109999D03*
X142059999Y-65649999D03*
X142059999Y-63109999D03*
X144599999Y-65649999D03*
X144599999Y-63109999D03*
X147139999Y-65649999D03*
X147139999Y-63109999D03*
X149679999Y-65649999D03*
X149679999Y-63109999D03*
X152219999Y-65649999D03*
X152219999Y-63109999D03*
X154759999Y-65649999D03*
X154759999Y-63109999D03*
X157299999Y-65649999D03*
X157299999Y-63109999D03*
X159839999Y-65649999D03*
X159839999Y-63109999D03*
X162379999Y-65649999D03*
X162379999Y-63109999D03*
X164919999Y-65649999D03*
X164919999Y-63109999D03*
X167459999Y-65649999D03*
X167459999Y-63109999D03*
X169999999Y-65649999D03*
X169999999Y-63109999D03*
%TD*%
D10*
%TO.C,U4*%
X157349999Y-91199999D03*
D11*
X159889999Y-91199999D03*
X157349999Y-93739999D03*
X159889999Y-93739999D03*
X157349999Y-96279999D03*
X159889999Y-96279999D03*
X157349999Y-98819999D03*
X159889999Y-98819999D03*
%TD*%
D14*
%TO.C,J1*%
X102224999Y-79159999D03*
X101864999Y-73209999D03*
X93604999Y-73209999D03*
X93244999Y-79159999D03*
D15*
X101334999Y-71959999D03*
D16*
X94135000Y-71960000D03*
%TD*%
M02*
